<svg width="6" height="6" viewBox="0 0 6 6" fill="none" xmlns="http://www.w3.org/2000/svg">
<path d="M5.71557 3.61907C5.54558 3.65353 5.37245 3.6707 5.1989 3.67031C4.50989 3.66957 3.84933 3.3994 3.36213 2.91909C2.87493 2.43877 2.6009 1.78753 2.60015 1.10826C2.59922 0.835963 2.64368 0.565364 2.73174 0.307274C2.74497 0.268567 2.74764 0.227112 2.73948 0.187066C2.73133 0.147021 2.71263 0.109794 2.68528 0.0791202C2.65792 0.048446 2.62286 0.0254034 2.58362 0.0123038C2.54438 -0.000795744 2.50234 -0.0034916 2.4617 0.00448669C1.93261 0.110112 1.44111 0.351359 1.03671 0.703917C0.632321 1.05648 0.329329 1.50789 0.15827 2.01267C-0.0127888 2.51745 -0.0458715 3.05776 0.0623558 3.57917C0.170583 4.10057 0.416297 4.58464 0.774737 4.98259C1.13318 5.38055 1.59168 5.67833 2.10404 5.84593C2.6164 6.01354 3.16453 6.04504 3.69317 5.93727C4.22182 5.8295 4.71231 5.58626 5.11523 5.23206C5.51815 4.87787 5.81926 4.42523 5.98821 3.91976C6.00114 3.88093 6.00348 3.83943 5.995 3.79943C5.98652 3.75943 5.96751 3.72233 5.93989 3.69186C5.91226 3.6614 5.87699 3.63863 5.83762 3.62585C5.79825 3.61307 5.75615 3.61073 5.71557 3.61907ZM3.07265 5.53361C2.46185 5.5342 1.87036 5.32266 1.40201 4.93613C0.933652 4.5496 0.618361 4.01278 0.511479 3.4199C0.404596 2.82702 0.512952 2.21597 0.817526 1.694C1.1221 1.17204 1.60343 0.772521 2.17702 0.565575C2.09672 1.00197 2.11458 1.45042 2.22934 1.87926C2.34409 2.30811 2.55295 2.70688 2.84117 3.04742C3.12938 3.38797 3.48991 3.66197 3.89731 3.85009C4.3047 4.03821 4.74903 4.13586 5.1989 4.13614C5.26292 4.13614 5.32694 4.13427 5.39002 4.13031C5.17379 4.55311 4.84253 4.90827 4.43328 5.1561C4.02403 5.40392 3.55293 5.53463 3.07265 5.53361Z" fill="#808080"/>
</svg>
