<svg width="10" height="10" viewBox="0 0 10 10" fill="none" xmlns="http://www.w3.org/2000/svg">
<circle cx="5" cy="5" r="5" fill="#0D0D0D"/>
<path d="M7.71557 5.61907C7.54558 5.65353 7.37245 5.6707 7.1989 5.67031C6.50989 5.66957 5.84933 5.3994 5.36213 4.91909C4.87493 4.43877 4.6009 3.78753 4.60015 3.10826C4.59922 2.83596 4.64368 2.56536 4.73174 2.30727C4.74497 2.26857 4.74764 2.22711 4.73948 2.18707C4.73133 2.14702 4.71263 2.10979 4.68528 2.07912C4.65792 2.04845 4.62286 2.0254 4.58362 2.0123C4.54438 1.9992 4.50234 1.99651 4.4617 2.00449C3.93261 2.11011 3.44111 2.35136 3.03671 2.70392C2.63232 3.05648 2.32933 3.50789 2.15827 4.01267C1.98721 4.51745 1.95413 5.05776 2.06236 5.57917C2.17058 6.10057 2.4163 6.58464 2.77474 6.98259C3.13318 7.38055 3.59168 7.67833 4.10404 7.84593C4.6164 8.01354 5.16453 8.04504 5.69317 7.93727C6.22182 7.8295 6.71231 7.58626 7.11523 7.23206C7.51815 6.87787 7.81926 6.42523 7.98821 5.91976C8.00114 5.88093 8.00348 5.83943 7.995 5.79943C7.98652 5.75943 7.96751 5.72233 7.93989 5.69186C7.91226 5.6614 7.87699 5.63863 7.83762 5.62585C7.79825 5.61307 7.75615 5.61073 7.71557 5.61907ZM5.07265 7.53361C4.46185 7.5342 3.87036 7.32266 3.40201 6.93613C2.93365 6.5496 2.61836 6.01278 2.51148 5.4199C2.4046 4.82702 2.51295 4.21597 2.81753 3.694C3.1221 3.17204 3.60343 2.77252 4.17702 2.56557C4.09672 3.00197 4.11458 3.45042 4.22934 3.87926C4.34409 4.30811 4.55295 4.70688 4.84117 5.04742C5.12938 5.38797 5.48991 5.66197 5.89731 5.85009C6.3047 6.03821 6.74903 6.13586 7.1989 6.13614C7.26292 6.13614 7.32694 6.13427 7.39002 6.13031C7.17379 6.55311 6.84253 6.90827 6.43328 7.1561C6.02403 7.40392 5.55293 7.53463 5.07265 7.53361Z" fill="white"/>
</svg>
