<svg width="6" height="6" viewBox="0 0 6 6" fill="none" xmlns="http://www.w3.org/2000/svg">
<path d="M3 4.4C2.72311 4.4 2.45243 4.31789 2.2222 4.16406C1.99197 4.01022 1.81253 3.79157 1.70657 3.53576C1.60061 3.27994 1.57288 2.99845 1.6269 2.72687C1.68092 2.4553 1.81426 2.20584 2.01005 2.01005C2.20584 1.81426 2.4553 1.68092 2.72687 1.6269C2.99845 1.57288 3.27994 1.60061 3.53576 1.70657C3.79157 1.81253 4.01022 1.99197 4.16406 2.2222C4.31789 2.45243 4.4 2.72311 4.4 3C4.4 3.3713 4.2525 3.7274 3.98995 3.98995C3.7274 4.2525 3.3713 4.4 3 4.4ZM3 2C2.80222 2 2.60888 2.05865 2.44443 2.16853C2.27998 2.27841 2.15181 2.43459 2.07612 2.61732C2.00043 2.80004 1.98063 3.00111 2.01921 3.19509C2.0578 3.38907 2.15304 3.56725 2.29289 3.70711C2.43275 3.84696 2.61093 3.9422 2.80491 3.98079C2.99889 4.01937 3.19996 3.99957 3.38268 3.92388C3.56541 3.84819 3.72159 3.72002 3.83147 3.55557C3.94135 3.39112 4 3.19778 4 3C4 2.73478 3.89464 2.48043 3.70711 2.29289C3.51957 2.10536 3.26522 2 3 2ZM3.2 1.2V0.2C3.2 0.146957 3.17893 0.0960859 3.14142 0.0585786C3.10391 0.0210714 3.05304 0 3 0C2.94696 0 2.89609 0.0210714 2.85858 0.0585786C2.82107 0.0960859 2.8 0.146957 2.8 0.2V1.2C2.8 1.25304 2.82107 1.30391 2.85858 1.34142C2.89609 1.37893 2.94696 1.4 3 1.4C3.05304 1.4 3.10391 1.37893 3.14142 1.34142C3.17893 1.30391 3.2 1.25304 3.2 1.2ZM1.868 1.868C1.90525 1.83053 1.92616 1.77984 1.92616 1.727C1.92616 1.67416 1.90525 1.62347 1.868 1.586L1.162 0.878C1.12434 0.840339 1.07326 0.819182 1.02 0.819182C0.96674 0.819182 0.915661 0.840339 0.878 0.878C0.840339 0.915661 0.819182 0.96674 0.819182 1.02C0.819182 1.07326 0.840339 1.12434 0.878 1.162L1.586 1.87C1.62347 1.90725 1.67416 1.92816 1.727 1.92816C1.77984 1.92816 1.83053 1.90725 1.868 1.87V1.868ZM1.4 3C1.4 2.94696 1.37893 2.89609 1.34142 2.85858C1.30391 2.82107 1.25304 2.8 1.2 2.8H0.2C0.146957 2.8 0.0960859 2.82107 0.0585786 2.85858C0.0210714 2.89609 0 2.94696 0 3C0 3.05304 0.0210714 3.10391 0.0585786 3.14142C0.0960859 3.17893 0.146957 3.2 0.2 3.2H1.2C1.25304 3.2 1.30391 3.17893 1.34142 3.14142C1.37893 3.10391 1.4 3.05304 1.4 3ZM1.162 5.122L1.87 4.414C1.90277 4.37574 1.91989 4.32652 1.91794 4.27619C1.916 4.22585 1.89513 4.17811 1.85951 4.14249C1.82389 4.10687 1.77615 4.086 1.72581 4.08406C1.67548 4.08211 1.62626 4.09923 1.588 4.132L0.878 4.838C0.857064 4.85593 0.84006 4.87799 0.828055 4.90281C0.81605 4.92762 0.809304 4.95465 0.80824 4.98219C0.807176 5.00973 0.811818 5.0372 0.821873 5.06286C0.831927 5.08853 0.847179 5.11184 0.86667 5.13133C0.886161 5.15082 0.90947 5.16607 0.935135 5.17613C0.9608 5.18618 0.988267 5.19082 1.01581 5.18976C1.04335 5.1887 1.07038 5.18195 1.09519 5.16995C1.12001 5.15794 1.14207 5.14094 1.16 5.12L1.162 5.122ZM3.2 5.8V4.8C3.2 4.74696 3.17893 4.69609 3.14142 4.65858C3.10391 4.62107 3.05304 4.6 3 4.6C2.94696 4.6 2.89609 4.62107 2.85858 4.65858C2.82107 4.69609 2.8 4.74696 2.8 4.8V5.8C2.8 5.85304 2.82107 5.90391 2.85858 5.94142C2.89609 5.97893 2.94696 6 3 6C3.05304 6 3.10391 5.97893 3.14142 5.94142C3.17893 5.90391 3.2 5.85304 3.2 5.8ZM5.122 5.122C5.15925 5.08453 5.18016 5.03384 5.18016 4.981C5.18016 4.92816 5.15925 4.87747 5.122 4.84L4.414 4.132C4.37574 4.09923 4.32652 4.08211 4.27619 4.08406C4.22585 4.086 4.17811 4.10687 4.14249 4.14249C4.10687 4.17811 4.086 4.22585 4.08406 4.27619C4.08211 4.32652 4.09923 4.37574 4.132 4.414L4.84 5.122C4.87747 5.15925 4.92816 5.18016 4.981 5.18016C5.03384 5.18016 5.08453 5.15925 5.122 5.122ZM6 3C6 2.94696 5.97893 2.89609 5.94142 2.85858C5.90391 2.82107 5.85304 2.8 5.8 2.8H4.8C4.74696 2.8 4.69609 2.82107 4.65858 2.85858C4.62107 2.89609 4.6 2.94696 4.6 3C4.6 3.05304 4.62107 3.10391 4.65858 3.14142C4.69609 3.17893 4.74696 3.2 4.8 3.2H5.8C5.85304 3.2 5.90391 3.17893 5.94142 3.14142C5.97893 3.10391 6 3.05304 6 3ZM4.414 1.868L5.122 1.16C5.15477 1.12174 5.17189 1.07252 5.16994 1.02219C5.168 0.971854 5.14713 0.924106 5.11151 0.888487C5.07589 0.852868 5.02815 0.832002 4.97781 0.830058C4.92748 0.828114 4.87826 0.845235 4.84 0.878L4.132 1.586C4.11106 1.60393 4.09406 1.62599 4.08206 1.65081C4.07005 1.67562 4.0633 1.70265 4.06224 1.73019C4.06118 1.75773 4.06582 1.7852 4.07587 1.81086C4.08593 1.83653 4.10118 1.85984 4.12067 1.87933C4.14016 1.89882 4.16347 1.91407 4.18914 1.92413C4.2148 1.93418 4.24227 1.93882 4.26981 1.93776C4.29735 1.9367 4.32438 1.92995 4.34919 1.91795C4.37401 1.90594 4.39607 1.88894 4.414 1.868Z" fill="#808080"/>
</svg>
