<svg width="10" height="10" viewBox="0 0 10 10" fill="none" xmlns="http://www.w3.org/2000/svg">
<circle cx="5" cy="5" r="5" fill="#0D0D0D"/>
<path d="M5 6.4C4.72311 6.4 4.45243 6.31789 4.2222 6.16406C3.99197 6.01022 3.81253 5.79157 3.70657 5.53576C3.60061 5.27994 3.57288 4.99845 3.6269 4.72687C3.68092 4.4553 3.81426 4.20584 4.01005 4.01005C4.20584 3.81426 4.4553 3.68092 4.72687 3.6269C4.99845 3.57288 5.27994 3.60061 5.53576 3.70657C5.79157 3.81253 6.01022 3.99197 6.16406 4.2222C6.31789 4.45243 6.4 4.72311 6.4 5C6.4 5.3713 6.2525 5.7274 5.98995 5.98995C5.7274 6.2525 5.3713 6.4 5 6.4ZM5 4C4.80222 4 4.60888 4.05865 4.44443 4.16853C4.27998 4.27841 4.15181 4.43459 4.07612 4.61732C4.00043 4.80004 3.98063 5.00111 4.01921 5.19509C4.0578 5.38907 4.15304 5.56725 4.29289 5.70711C4.43275 5.84696 4.61093 5.9422 4.80491 5.98079C4.99889 6.01937 5.19996 5.99957 5.38268 5.92388C5.56541 5.84819 5.72159 5.72002 5.83147 5.55557C5.94135 5.39112 6 5.19778 6 5C6 4.73478 5.89464 4.48043 5.70711 4.29289C5.51957 4.10536 5.26522 4 5 4ZM5.2 3.2V2.2C5.2 2.14696 5.17893 2.09609 5.14142 2.05858C5.10391 2.02107 5.05304 2 5 2C4.94696 2 4.89609 2.02107 4.85858 2.05858C4.82107 2.09609 4.8 2.14696 4.8 2.2V3.2C4.8 3.25304 4.82107 3.30391 4.85858 3.34142C4.89609 3.37893 4.94696 3.4 5 3.4C5.05304 3.4 5.10391 3.37893 5.14142 3.34142C5.17893 3.30391 5.2 3.25304 5.2 3.2ZM3.868 3.868C3.90525 3.83053 3.92616 3.77984 3.92616 3.727C3.92616 3.67416 3.90525 3.62347 3.868 3.586L3.162 2.878C3.12434 2.84034 3.07326 2.81918 3.02 2.81918C2.96674 2.81918 2.91566 2.84034 2.878 2.878C2.84034 2.91566 2.81918 2.96674 2.81918 3.02C2.81918 3.07326 2.84034 3.12434 2.878 3.162L3.586 3.87C3.62347 3.90725 3.67416 3.92816 3.727 3.92816C3.77984 3.92816 3.83053 3.90725 3.868 3.87V3.868ZM3.4 5C3.4 4.94696 3.37893 4.89609 3.34142 4.85858C3.30391 4.82107 3.25304 4.8 3.2 4.8H2.2C2.14696 4.8 2.09609 4.82107 2.05858 4.85858C2.02107 4.89609 2 4.94696 2 5C2 5.05304 2.02107 5.10391 2.05858 5.14142C2.09609 5.17893 2.14696 5.2 2.2 5.2H3.2C3.25304 5.2 3.30391 5.17893 3.34142 5.14142C3.37893 5.10391 3.4 5.05304 3.4 5ZM3.162 7.122L3.87 6.414C3.90277 6.37574 3.91989 6.32652 3.91794 6.27619C3.916 6.22585 3.89513 6.17811 3.85951 6.14249C3.82389 6.10687 3.77615 6.086 3.72581 6.08406C3.67548 6.08211 3.62626 6.09923 3.588 6.132L2.878 6.838C2.85706 6.85593 2.84006 6.87799 2.82805 6.90281C2.81605 6.92762 2.8093 6.95465 2.80824 6.98219C2.80718 7.00973 2.81182 7.0372 2.82187 7.06286C2.83193 7.08853 2.84718 7.11184 2.86667 7.13133C2.88616 7.15082 2.90947 7.16607 2.93514 7.17613C2.9608 7.18618 2.98827 7.19082 3.01581 7.18976C3.04335 7.1887 3.07038 7.18195 3.09519 7.16995C3.12001 7.15794 3.14207 7.14094 3.16 7.12L3.162 7.122ZM5.2 7.8V6.8C5.2 6.74696 5.17893 6.69609 5.14142 6.65858C5.10391 6.62107 5.05304 6.6 5 6.6C4.94696 6.6 4.89609 6.62107 4.85858 6.65858C4.82107 6.69609 4.8 6.74696 4.8 6.8V7.8C4.8 7.85304 4.82107 7.90391 4.85858 7.94142C4.89609 7.97893 4.94696 8 5 8C5.05304 8 5.10391 7.97893 5.14142 7.94142C5.17893 7.90391 5.2 7.85304 5.2 7.8ZM7.122 7.122C7.15925 7.08453 7.18016 7.03384 7.18016 6.981C7.18016 6.92816 7.15925 6.87747 7.122 6.84L6.414 6.132C6.37574 6.09923 6.32652 6.08211 6.27619 6.08406C6.22585 6.086 6.17811 6.10687 6.14249 6.14249C6.10687 6.17811 6.086 6.22585 6.08406 6.27619C6.08211 6.32652 6.09923 6.37574 6.132 6.414L6.84 7.122C6.87747 7.15925 6.92816 7.18016 6.981 7.18016C7.03384 7.18016 7.08453 7.15925 7.122 7.122ZM8 5C8 4.94696 7.97893 4.89609 7.94142 4.85858C7.90391 4.82107 7.85304 4.8 7.8 4.8H6.8C6.74696 4.8 6.69609 4.82107 6.65858 4.85858C6.62107 4.89609 6.6 4.94696 6.6 5C6.6 5.05304 6.62107 5.10391 6.65858 5.14142C6.69609 5.17893 6.74696 5.2 6.8 5.2H7.8C7.85304 5.2 7.90391 5.17893 7.94142 5.14142C7.97893 5.10391 8 5.05304 8 5ZM6.414 3.868L7.122 3.16C7.15477 3.12174 7.17189 3.07252 7.16994 3.02219C7.168 2.97185 7.14713 2.92411 7.11151 2.88849C7.07589 2.85287 7.02815 2.832 6.97781 2.83006C6.92748 2.82811 6.87826 2.84523 6.84 2.878L6.132 3.586C6.11106 3.60393 6.09406 3.62599 6.08206 3.65081C6.07005 3.67562 6.0633 3.70265 6.06224 3.73019C6.06118 3.75773 6.06582 3.7852 6.07587 3.81086C6.08593 3.83653 6.10118 3.85984 6.12067 3.87933C6.14016 3.89882 6.16347 3.91407 6.18914 3.92413C6.2148 3.93418 6.24227 3.93882 6.26981 3.93776C6.29735 3.9367 6.32438 3.92995 6.34919 3.91795C6.37401 3.90594 6.39607 3.88894 6.414 3.868Z" fill="white"/>
</svg>
